# xmcd
#
# Track frame offsets: 
#        150
#        23394
#        44034
#        58879
#        79927
#
# Disc length: 1263 seconds
#
# Revision: 0
# Processed by: cddbd v1.5.2PL0 Copyright (c) Steve Scherf et al.
# Submitted via: ExactAudioCopy v0.99pb5
#
DISCID=3b04ed05
DTITLE=Midnight Train - Demo
DYEAR=2009
DGENRE=Blues
TTITLE0=Me and Bobby McGee
TTITLE1=Soulshine
TTITLE2=Chain of Fools
TTITLE3=Wang Dang Doodle
TTITLE4=63-5789
EXTD=
EXTT0=
EXTT1=
EXTT2=
EXTT3=
EXTT4=
PLAYORDER=
